<svg id="Layer_1" enable-background="new 0 0 511.994 511.994" height="512" viewBox="0 0 511.994 511.994" width="512" xmlns="http://www.w3.org/2000/svg"><g id="XMLID_3821_"><g id="XMLID_1375_"><g id="XMLID_1376_"><g id="XMLID_746_"><path id="XMLID_747_" d="m368.718 473.896c-21.649 11.84-46.133 18.098-70.806 18.098h-269.523c-5.522 0-10 4.478-10 10s4.478 10 10 10h269.523c28.017 0 55.819-7.106 80.401-20.551 4.846-2.649 6.626-8.727 3.976-13.571-2.649-4.846-8.726-6.626-13.571-3.976z"/><path id="XMLID_1538_" d="m481.777 340.793c-15.572-15.43-40.851-15.37-56.349.135l-58.626 58.643c-10.017 10.02-21.883 17.521-34.827 22.184 1.706-4.433 2.642-9.246 2.642-14.272 0-21.976-17.875-39.854-39.847-39.854l-79.191-.001-14.947-15.226c-20.154-20.527-48.213-32.301-76.98-32.301-23.563 0-46.846 7.886-65.559 22.205l-35.78 27.38c-4.386 3.356-5.221 9.633-1.864 14.019 3.356 4.385 9.633 5.22 14.019 1.864l35.78-27.38c15.243-11.664 34.21-18.088 53.404-18.088 23.435 0 46.291 9.591 62.709 26.313l17.887 18.22c1.88 1.915 4.451 2.994 7.136 2.994l83.388.001c10.943 0 19.847 8.906 19.847 19.854 0 10.946-8.905 19.852-19.852 19.852l-131.326.002c-5.522 0-10 4.478-10 10s4.478 10 10 10h136.347c30.661 0 59.484-11.941 81.161-33.624l58.626-58.643c7.737-7.738 20.355-7.771 28.128-.067 3.796 3.76 5.893 8.772 5.905 14.114.013 5.343-2.061 10.365-5.839 14.143l-33.537 33.537c-3.905 3.905-3.905 10.237 0 14.143 3.906 3.904 10.236 3.904 14.143 0l33.537-33.537c7.567-7.567 11.722-17.63 11.696-28.332s-4.229-20.747-11.831-28.278z"/><path id="XMLID_1540_" d="m409.647 445.847c-2.63 0-5.21 1.07-7.069 2.931-1.86 1.859-2.931 4.439-2.931 7.069s1.07 5.21 2.931 7.07c1.87 1.86 4.439 2.93 7.069 2.93s5.21-1.069 7.07-2.93 2.93-4.44 2.93-7.07-1.069-5.21-2.93-7.069c-1.86-1.861-4.44-2.931-7.07-2.931z"/><path id="XMLID_1546_" d="m135.997 283.987h110v38c0 5.522 4.478 10 10 10s10-4.478 10-10v-38h110c16.542 0 30-13.458 30-30v-48c0-7.678-2.902-14.688-7.664-20 4.761-5.312 7.664-12.322 7.664-20v-48c0-7.675-2.9-14.683-7.658-19.994 4.758-5.311 7.658-12.319 7.658-19.994v-47.999c0-16.542-13.458-30-30-30h-240c-16.542 0-30 13.458-30 30v48c0 7.675 2.9 14.683 7.658 19.994-4.758 5.311-7.658 12.319-7.658 19.994v48c0 7.678 2.902 14.688 7.664 20-4.761 5.312-7.664 12.322-7.664 20v48c0 16.541 13.458 29.999 30 29.999zm250-30c0 5.514-4.486 10-10 10h-240c-5.514 0-10-4.486-10-10v-48c0-5.514 4.486-10 10-10h240c5.514 0 10 4.486 10 10zm-260-88v-48c0-5.457 4.397-9.901 9.833-9.991.056 0 .111.004.167.004h240c.056 0 .111-.004.167-.004 5.436.09 9.833 4.534 9.833 9.991v48c0 5.514-4.486 10-10 10h-240c-5.513 0-10-4.486-10-10zm0-135.987c0-5.514 4.486-10 10-10h240c5.514 0 10 4.486 10 10v48c0 5.457-4.397 9.901-9.833 9.991-.056 0-.111-.004-.167-.004h-240c-.056 0-.111.004-.167.004-5.436-.09-9.833-4.534-9.833-9.991z"/><path id="XMLID_1552_" d="m245.579 219.987h-83.665c-5.522 0-10 4.478-10 10s4.478 10 10 10h83.665c5.522 0 10-4.478 10-10s-4.477-10-10-10z"/><path id="XMLID_1553_" d="m297.697 219.987c-2.631 0-5.21 1.069-7.07 2.93s-2.93 4.439-2.93 7.07c0 2.63 1.069 5.21 2.93 7.069 1.86 1.86 4.439 2.931 7.07 2.931 2.63 0 5.21-1.07 7.069-2.931 1.86-1.859 2.931-4.439 2.931-7.069 0-2.631-1.07-5.21-2.931-7.07-1.859-1.86-4.439-2.93-7.069-2.93z"/><path id="XMLID_1554_" d="m350.077 219.987c-2.63 0-5.21 1.069-7.07 2.93s-2.93 4.439-2.93 7.07c0 2.63 1.069 5.21 2.93 7.069 1.86 1.86 4.44 2.931 7.07 2.931 2.64 0 5.21-1.07 7.069-2.931 1.86-1.859 2.931-4.439 2.931-7.069 0-2.631-1.07-5.21-2.931-7.07-1.859-1.86-4.439-2.93-7.069-2.93z"/><path id="XMLID_1555_" d="m161.914 64h83.665c5.522 0 10-4.478 10-10s-4.478-10-10-10h-83.665c-5.522 0-10 4.478-10 10s4.478 10 10 10z"/><path id="XMLID_1556_" d="m297.697 63.997c2.63 0 5.199-1.061 7.069-2.931 1.86-1.859 2.931-4.43 2.931-7.069 0-2.63-1.07-5.21-2.931-7.07-1.859-1.86-4.439-2.93-7.069-2.93-2.641 0-5.21 1.069-7.07 2.93s-2.93 4.44-2.93 7.07c0 2.64 1.069 5.21 2.93 7.069 1.86 1.871 4.44 2.931 7.07 2.931z"/><path id="XMLID_1557_" d="m350.077 63.997c2.64 0 5.21-1.061 7.069-2.931 1.86-1.859 2.931-4.43 2.931-7.069 0-2.63-1.07-5.21-2.931-7.07-1.859-1.86-4.43-2.93-7.069-2.93-2.63 0-5.21 1.069-7.07 2.93-1.86 1.87-2.93 4.44-2.93 7.07s1.069 5.21 2.93 7.069c1.86 1.871 4.44 2.931 7.07 2.931z"/><path id="XMLID_1691_" d="m245.579 131.987h-83.665c-5.522 0-10 4.478-10 10s4.478 10 10 10h83.665c5.522 0 10-4.478 10-10s-4.477-10-10-10z"/><path id="XMLID_1692_" d="m297.697 131.987c-2.631 0-5.21 1.069-7.07 2.93s-2.93 4.439-2.93 7.07c0 2.63 1.069 5.21 2.93 7.069 1.86 1.86 4.43 2.931 7.07 2.931 2.63 0 5.21-1.07 7.069-2.931 1.86-1.859 2.931-4.439 2.931-7.069 0-2.631-1.07-5.21-2.931-7.07-1.859-1.86-4.439-2.93-7.069-2.93z"/><path id="XMLID_1704_" d="m350.077 131.987c-2.63 0-5.21 1.069-7.07 2.93s-2.93 4.439-2.93 7.07c0 2.63 1.069 5.21 2.93 7.069 1.86 1.86 4.44 2.931 7.07 2.931 2.64 0 5.21-1.07 7.069-2.931 1.86-1.859 2.931-4.439 2.931-7.069 0-2.631-1.07-5.21-2.931-7.07-1.859-1.86-4.429-2.93-7.069-2.93z"/></g></g></g></g></svg>